<svg width="224" height="210" viewBox="0 0 224 210" fill="none" xmlns="http://www.w3.org/2000/svg">
<path d="M58.4205 203.908L49.8194 198.351L50.5031 197.293L57.8779 202.057L60.3633 198.21L56.5163 195.725C55.1276 194.828 54.2593 193.862 53.9116 192.828C53.5526 191.786 53.7241 190.722 54.4259 189.636C55.1567 188.505 56.1094 187.89 57.2841 187.792C58.4476 187.686 59.7573 188.104 61.2132 189.044L66.0177 192.148L58.4205 203.908ZM60.5896 190.046C59.5033 189.345 58.5519 189.024 57.7354 189.083C56.9077 189.136 56.2298 189.571 55.7016 190.389C55.1807 191.195 55.0679 191.971 55.3635 192.718C55.6406 193.468 56.3335 194.202 57.4422 194.918L61.0036 197.219L64.151 192.347L60.5896 190.046Z" fill="#504339"/>
<path d="M42.0626 174.661L42.9565 173.745L50.0419 180.659L40.264 190.679L33.3934 183.974L34.2874 183.058L40.0988 188.729L43.5769 185.165L38.3953 180.109L39.2753 179.207L44.4569 184.263L48.0887 180.542L42.0626 174.661Z" fill="#504339"/>
<path d="M28.8313 167.358C28.4811 166.478 28.399 165.652 28.585 164.88C28.7633 164.097 29.1942 163.462 29.8778 162.973C30.5396 162.501 31.2674 162.292 32.0609 162.348C32.8545 162.404 33.631 162.677 34.3905 163.167C35.1391 163.664 35.8001 164.314 36.3736 165.117C36.916 165.877 37.3314 166.711 37.6197 167.619C37.8893 168.524 37.9892 169.444 37.9194 170.379L36.743 170.555C36.8097 169.754 36.7284 168.952 36.499 168.149C36.2588 167.354 35.9062 166.631 35.4412 165.98C34.9995 165.361 34.495 164.862 33.9278 164.48C33.3605 164.099 32.7894 163.884 32.2143 163.836C31.6207 163.785 31.0743 163.938 30.5752 164.294C29.9133 164.767 29.5894 165.391 29.6033 166.168C29.6172 166.944 29.9612 167.805 30.6354 168.749L32.379 171.19L31.4025 171.887L29.7054 169.511C29.132 168.708 28.5182 168.205 27.8641 168C27.1915 167.792 26.5513 167.905 25.9437 168.339C25.271 168.82 24.9501 169.483 24.9811 170.329C25.0012 171.183 25.3212 172.044 25.9412 172.912C26.3286 173.455 26.8013 173.945 27.3593 174.382C27.9064 174.827 28.5155 175.186 29.1867 175.461L28.4845 176.577C27.0058 175.929 25.7977 174.948 24.86 173.635C24.3098 172.865 23.9309 172.071 23.7232 171.252C23.5156 170.434 23.5133 169.674 23.7164 168.972C23.9117 168.259 24.324 167.677 24.9533 167.228C25.5609 166.794 26.2073 166.586 26.8924 166.605C27.5666 166.631 28.2129 166.882 28.8313 167.358Z" fill="#504339"/>
<path d="M27.3293 149.405C27.9234 150.657 28.1862 151.927 28.1176 153.214C28.0313 154.495 27.6373 155.655 26.9356 156.696C26.2283 157.725 25.2662 158.528 24.0494 159.105C22.8326 159.682 21.6021 159.919 20.3577 159.816C19.1077 159.7 17.9656 159.268 16.9315 158.519C15.8797 157.763 15.0567 156.759 14.4626 155.506C13.8685 154.253 13.6114 152.995 13.6914 151.732C13.7657 150.458 14.1597 149.297 14.8734 148.25C15.575 147.209 16.5342 146.4 17.751 145.823C18.9678 145.246 20.2073 145.012 21.4694 145.122C22.7194 145.238 23.8615 145.67 24.8955 146.419C25.9239 147.157 26.7351 148.152 27.3293 149.405ZM26.1366 149.97C25.6624 148.97 25.0111 148.172 24.1826 147.576C23.342 146.986 22.4156 146.651 21.4034 146.57C20.3791 146.495 19.373 146.692 18.3851 147.16C17.3972 147.629 16.6143 148.28 16.0362 149.115C15.4461 149.956 15.1196 150.885 15.0566 151.904C14.9816 152.928 15.1811 153.94 15.6553 154.94C16.1295 155.94 16.7897 156.741 17.636 157.343C18.4645 157.939 19.3937 158.281 20.4237 158.368C21.4359 158.448 22.436 158.255 23.4239 157.786C24.4118 157.318 25.2008 156.663 25.7909 155.823C26.3632 154.976 26.6869 154.04 26.7619 153.016C26.8192 151.985 26.6107 150.97 26.1366 149.97Z" fill="#504339"/>
<path d="M6.69852 131.227L20.2561 127.735L20.6202 129.149L8.30221 132.322L10.5121 140.902L22.8301 137.729L23.1942 139.143L9.63665 142.635L6.69852 131.227Z" fill="#504339"/>
<path d="M17.65 111.686L18.9276 111.607L19.5347 121.489L5.56107 122.347L4.97234 112.765L6.24993 112.687L6.7479 120.791L11.7185 120.486L11.2745 113.26L12.5322 113.182L12.9762 120.409L18.1664 120.09L17.65 111.686Z" fill="#504339"/>
<path d="M6.06134 97.2325C6.29966 95.4618 6.90926 94.1312 7.89013 93.2408C8.871 92.3503 10.1014 92.0047 11.5814 92.2039C13.0614 92.403 14.1567 93.0617 14.8672 94.1798C15.5645 95.2961 15.7941 96.7396 15.5557 98.5103L15.0542 102.237L19.4347 102.826L19.2373 104.293L5.3624 102.426L6.06134 97.2325ZM14.262 98.3766C14.447 97.0023 14.2911 95.9118 13.7942 95.1049C13.2842 94.2963 12.4808 93.8182 11.384 93.6706C10.2608 93.5195 9.35297 93.7672 8.66052 94.414C7.95485 95.059 7.50953 96.0686 7.32457 97.4429L6.82837 101.13L13.7658 102.063L14.262 98.3766Z" fill="#504339"/>
<path d="M21.9915 76.0671L19.5046 83.46L22.5138 86.2447L22.0227 87.7044L10.7939 77.1747L11.2594 75.7909L26.5693 74.1886L26.0719 75.6672L21.9915 76.0671ZM20.682 76.1963L12.4831 76.9833L18.5394 82.5656L20.682 76.1963Z" fill="#504339"/>
<path d="M34.1472 58.0058L38.1153 60.2526L37.4353 61.4534L34.5811 59.8373L28.56 70.471L16.3774 63.5729L17.0968 62.3024L28.1656 68.5699L32.334 61.2081L21.2652 54.9407L21.9846 53.6702L33.0534 59.9376L34.1472 58.0058Z" fill="#504339"/>
<path d="M28.066 45.2963L29.0278 44.198L37.7546 51.8401L34.9308 37.4573L35.8136 36.4492L46.3459 45.6725L45.3841 46.7709L36.6723 39.1419L39.4811 53.5116L38.5983 54.5197L28.066 45.2963Z" fill="#504339"/>
<path d="M56.6334 37.3061C55.5349 38.1524 54.3496 38.6784 53.0775 38.8842C51.8078 39.0712 50.5899 38.9323 49.4238 38.4673C48.2683 37.9942 47.2796 37.2242 46.4578 36.1574C45.6359 35.0906 45.1437 33.9382 44.981 32.7002C44.8289 31.454 45.0093 30.2463 45.5223 29.0769C46.0376 27.8888 46.8446 26.8716 47.9431 26.0254C49.0416 25.1791 50.2163 24.6612 51.4673 24.4717C52.7289 24.2741 53.9468 24.4131 55.121 24.8886C56.2871 25.3536 57.2811 26.1195 58.1029 27.1863C58.9247 28.2531 59.4158 29.4149 59.576 30.6716C59.7281 31.9177 59.5477 33.1255 59.0348 34.2949C58.5324 35.4561 57.7319 36.4599 56.6334 37.3061ZM55.8279 36.2604C56.7046 35.585 57.3462 34.7794 57.7528 33.8434C58.1513 32.8968 58.2827 31.9204 58.147 30.914C58.0032 29.8971 57.5977 28.9556 56.9305 28.0895C56.2632 27.2234 55.4604 26.5964 54.522 26.2084C53.5754 25.81 52.5978 25.6879 51.589 25.8423C50.5721 25.9861 49.6253 26.3957 48.7486 27.0711C47.872 27.7464 47.2291 28.5615 46.82 29.5162C46.4134 30.4522 46.2767 31.4327 46.41 32.4577C46.5457 33.464 46.9471 34.4003 47.6144 35.2664C48.2816 36.1325 49.0885 36.7648 50.035 37.1633C50.984 37.5431 51.967 37.6611 52.9839 37.5172C54.0032 37.3547 54.9512 36.9358 55.8279 36.2604Z" fill="#504339"/>
<path d="M69.9526 13.3266L76.2393 25.8357L74.9347 26.4913L72.0339 20.7193L64.2068 24.6529L67.1076 30.425L65.7852 31.0896L59.4986 18.5804L60.821 17.9159L63.623 23.4913L71.4501 19.5577L68.6481 13.9822L69.9526 13.3266Z" fill="#504339"/>
<path d="M89.7834 7.13533L93.5251 20.6261L92.1182 21.0163L90.3917 14.7913L81.9503 17.1325L83.6768 23.3575L82.2507 23.753L78.509 10.2623L79.9352 9.86673L81.6029 15.8797L90.0442 13.5385L88.3765 7.52553L89.7834 7.13533Z" fill="#504339"/>
<path d="M108.456 15.3047L100.684 15.9612L99.3244 19.8294L97.7899 19.959L102.989 5.46998L104.444 5.34709L111.999 18.7587L110.445 18.89L108.456 15.3047ZM107.817 14.1544L103.836 6.94391L101.121 14.72L107.817 14.1544Z" fill="#504339"/>
<path d="M127.448 6.1838L126.084 20.1172L124.631 19.975L125.044 15.7551L120.884 15.3479C120.698 15.3297 120.434 15.2905 120.091 15.2302L116.748 19.2034L115.176 19.0495L118.783 14.8409C117.791 14.4356 117.061 13.8216 116.592 12.9987C116.125 12.1625 115.946 11.1804 116.057 10.0525C116.21 8.48663 116.82 7.32049 117.886 6.55407C118.966 5.78895 120.348 5.48887 122.033 5.65383L127.448 6.1838ZM117.533 10.1569C117.422 11.2981 117.667 12.213 118.27 12.9016C118.887 13.5783 119.839 13.9796 121.126 14.1056L125.166 14.5011L125.87 7.31547L121.969 6.93359C120.668 6.80629 119.629 7.01942 118.851 7.57296C118.088 8.11453 117.649 8.97583 117.533 10.1569Z" fill="#504339"/>
<path d="M158.926 16.0274L153.542 28.9508L152.194 28.3894L157.086 16.6475L148.907 13.2403L144.016 24.9821L142.668 24.4207L148.052 11.4973L158.926 16.0274Z" fill="white"/>
<path d="M164.013 35.6325C162.857 34.8663 161.976 33.9144 161.371 32.777C160.783 31.6358 160.521 30.4383 160.585 29.1845C160.659 27.9381 161.069 26.7537 161.813 25.6313C162.557 24.5089 163.488 23.6708 164.607 23.1169C165.738 22.5704 166.939 22.351 168.211 22.4587C169.502 22.5626 170.726 22.9977 171.881 23.764C173.037 24.5302 173.907 25.4747 174.49 26.5974C175.085 27.7275 175.347 28.9249 175.276 30.1898C175.212 31.4436 174.809 32.6317 174.065 33.7541C173.32 34.8765 172.38 35.7165 171.242 36.2741C170.112 36.8206 168.911 37.04 167.638 36.9323C166.377 36.832 165.168 36.3987 164.013 35.6325ZM164.742 34.5323C165.664 35.1438 166.634 35.4908 167.651 35.5733C168.676 35.6446 169.642 35.4536 170.551 35.0001C171.467 34.5355 172.227 33.8476 172.831 32.9363C173.435 32.0251 173.769 31.0627 173.833 30.0493C173.905 29.0248 173.704 28.0601 173.232 27.1553C172.768 26.2394 172.074 25.4757 171.152 24.8641C170.23 24.2526 169.251 23.9075 168.215 23.8288C167.198 23.7464 166.226 23.9337 165.299 24.391C164.39 24.8444 163.634 25.5268 163.03 26.4381C162.425 27.3493 162.088 28.3172 162.016 29.3417C161.963 30.3625 162.169 31.3309 162.634 32.2468C163.117 33.159 163.82 33.9208 164.742 34.5323Z" fill="white"/>
<path d="M182.926 50.3811L179.83 53.5352L178.845 52.5685L181.045 50.3277L172.324 41.7671L170.11 43.9938L169.126 43.027L172.236 39.8869L172.736 40.3773C173.43 40.9837 174.395 40.9135 175.633 40.1667C176.88 39.4103 178.438 38.1372 180.307 36.3474L183.602 33.2197L190.338 39.8329L181.427 48.9099L182.926 50.3811ZM181.151 37.372C179.609 38.8477 178.257 39.9869 177.096 40.7896C175.953 41.5921 174.999 41.9451 174.234 41.8484L180.386 47.8871L188.4 39.7235L183.619 35.0298L181.151 37.372Z" fill="white"/>
<path d="M200.742 55.6105L197.876 51.611L187.536 59.0189L186.686 57.8321L197.026 50.4241L194.161 46.4246L195.201 45.6792L201.782 54.8651L200.742 55.6105Z" fill="white"/>
<path d="M209.611 69.9987L197.023 76.1275L196.384 74.8149L200.196 72.9587L198.367 69.2005C198.285 69.0327 198.18 68.7871 198.052 68.4638L192.917 67.6941L192.225 66.2736L197.699 67.1452C197.526 66.0879 197.667 65.1442 198.123 64.3141C198.591 63.4782 199.334 62.8122 200.353 62.3161C201.768 61.6273 203.081 61.5368 204.292 62.0445C205.509 62.5642 206.488 63.5852 207.229 65.1077L209.611 69.9987ZM201.037 63.6292C200.006 64.1312 199.355 64.8191 199.083 65.6928C198.83 66.5727 198.986 67.594 199.552 68.7568L201.329 72.4071L207.821 69.2464L206.105 65.722C205.533 64.5472 204.807 63.7733 203.929 63.4003C203.068 63.0334 202.104 63.1097 201.037 63.6292Z" fill="white"/>
<path d="M208.576 92.4354L207.873 89.6217L201.644 91.1769L201.296 89.7797L207.524 88.2246L206.817 85.3916L199.552 82.7942L199.135 81.1254L207.303 84.0335L212.805 78.0834L213.193 79.6358L208.074 85.0573L208.786 87.9097L214.879 86.3885L215.227 87.7856L209.134 89.3068L209.837 92.1205L216.909 94.5189L217.296 96.0713L209.643 93.4058L203.8 99.8118L203.384 98.143L208.576 92.4354Z" fill="white"/>
<path d="M210.258 108.263L210.128 105.066L203.713 105.327L203.655 103.888L217.643 103.319L217.702 104.758L211.427 105.013L211.557 108.211L218.024 112.692L218.089 114.29L211.084 109.371L204.113 115.159L204.044 113.46L210.258 108.263Z" fill="white"/>
<path d="M206.04 129.659L207.103 121.932L203.627 119.758L203.837 118.232L216.834 126.481L216.635 127.927L201.893 132.359L202.106 130.813L206.04 129.659ZM207.302 129.288L215.21 126.984L208.218 122.63L207.302 129.288Z" fill="white"/>
<path d="M205.669 161.483L192.914 155.71L193.516 154.38L205.104 159.625L207.892 153.467L203.695 151.391C201.961 150.533 200.605 149.744 199.629 149.024C198.659 148.321 198.011 147.618 197.686 146.915C197.372 146.217 197.389 145.485 197.735 144.72C197.884 144.392 198.08 144.071 198.325 143.757L199.478 144.411C199.336 144.596 199.221 144.785 199.133 144.979C198.891 145.514 198.908 146.041 199.185 146.562C199.456 147.094 199.996 147.646 200.806 148.218C201.628 148.795 202.76 149.446 204.202 150.172L209.586 152.828L205.669 161.483Z" fill="white"/>
<path d="M201.059 169.184L200.211 170.372L190.771 163.63L195.003 177.663L194.224 178.754L182.832 170.617L183.68 169.429L193.104 176.159L188.888 162.138L189.667 161.047L201.059 169.184Z" fill="white"/>
<path d="M168.899 186.034L165.802 182.687L166.815 181.75L169.042 184.158L178.012 175.859L187.52 186.135L186.448 187.127L177.81 177.79L171.6 183.535L180.238 192.872L179.167 193.863L170.528 184.527L168.899 186.034Z" fill="white"/>
<path d="M157.912 195.866L164.538 191.75L163.992 187.687L165.3 186.874L167.251 202.143L166.011 202.914L153.187 194.399L154.512 193.575L157.912 195.866ZM159.004 196.6L165.827 201.215L164.713 193.054L159.004 196.6Z" fill="white"/>
</svg>
